<svg id="Layer_1" data-name="Layer 1" xmlns="http://www.w3.org/2000/svg" viewBox="0 0 666.67 652.84"><defs><style>.cls-1{fill:#323232;fill-rule:evenodd;}</style></defs><title>chat</title><path class="cls-1" d="M233.33,333.33A33.34,33.34,0,0,1,266.67,300H267a33.34,33.34,0,0,1,0,66.67h-.33A33.34,33.34,0,0,1,233.33,333.33Zm133.34,0A33.33,33.33,0,0,1,400,300h.33a33.34,33.34,0,1,1,0,66.67H400A33.34,33.34,0,0,1,366.67,333.33ZM533.33,300a33.34,33.34,0,0,0,0,66.67h.34a33.34,33.34,0,0,0,0-66.67ZM231.14,66.67H568.86c29.55,0,55,0,75.4,2.73C666.11,72.34,687.06,79,704,96s23.62,37.93,26.56,59.78c2.74,20.39,2.74,45.85,2.73,75.4V435.53c0,29.55,0,55-2.73,75.4-2.94,21.85-9.57,42.79-26.56,59.78s-37.93,23.61-59.78,26.55C623.87,600,598.41,600,568.86,600H466.67a17.89,17.89,0,0,0-10.54,3.43L309.19,710.29c-31.57,23-75.86.41-75.86-38.63V600c-25.8,0-52,.71-77.59-2.74-21.85-2.94-42.8-9.56-59.78-26.55S72.34,532.78,69.4,510.93c-2.74-20.39-2.74-45.85-2.73-75.4V231.14c0-29.55,0-55,2.73-75.4C72.34,133.89,79,112.94,96,96s37.93-23.62,59.78-26.56C176.13,66.66,201.59,66.66,231.14,66.67Z" transform="translate(-66.67 -66.67)"/></svg>